<svg xmlns="http://www.w3.org/2000/svg" viewBox="0 0 500 500"><defs><style>.cls-1{fill:#1e1e1e;}.cls-2{fill:#4775fc;}.cls-3{fill:none;stroke:#4775fc;stroke-miterlimit:10;stroke-width:80px;}.cls-4{fill:blue;}</style></defs><g id="Layer_3" data-name="Layer 3"><rect class="cls-1" width="500" height="500"/></g><g id="Layer_2" data-name="Layer 2"><path class="cls-2" d="M346.74,149.73h77a3,3,0,0,1,3,3V367a0,0,0,0,1,0,0h-80a0,0,0,0,1,0,0V149.73A0,0,0,0,1,346.74,149.73Z"/><rect class="cls-2" x="256.01" y="390.89" width="80" height="66.03" transform="translate(719.92 127.89) rotate(90)"/><path class="cls-3" d="M386.74,365.24c0,50.39-31.08,58.67-58.75,58.67" transform="translate(0 0)"/><path class="cls-3" d="M265,423.91c-32.45,0-58.75-11.61-58.75-58.67" transform="translate(0 0)"/><path class="cls-2" d="M243.21,310.37h-39c-9.08,13.84-23.92,21.58-34.77,33.6-1.1,1.31-2.18,2.64-3.26,4v18.93h80V313.37A3,3,0,0,0,243.21,310.37Z" transform="translate(0 0)"/><path class="cls-2" d="M287.72,221.06c11.71-8.77,23.16-20,37.51-26.25V33.09c0-1.65-1.66-3-3.7-3H248.92c-2,0-3.69,1.35-3.69,3V247.36h3.41C261.17,238.18,275.3,230.37,287.72,221.06Z" transform="translate(0 0)"/><path class="cls-4" d="M222.27,303.88" transform="translate(0 0)"/><path class="cls-2" d="M179,254.36v79c0,.28.13.5.29.5h15.91c-.47-4.47,1-9.67,4.35-9.67a3,3,0,0,1,1.77.57c5.85-10.39,12.51-19.71,18.59-29.69,3.37-5.53,6.86-10.66,9.83-16.88a59.44,59.44,0,0,1,8.21-13,4.68,4.68,0,0,1,1-.94v-9.89c0-.28-.13-.5-.29-.5" transform="translate(0 0)"/><path class="cls-2" d="M238.41,271.29c.2-.05.4-.08.6-.11V253.86H173v71.7a146.41,146.41,0,0,0,11.66-11,152.69,152.69,0,0,1,19.64-17.72c6.4-4.87,13.42-12.37,21.33-16.4A20.46,20.46,0,0,1,238.41,271.29Z" transform="translate(0 0)"/><path class="cls-3" d="M174.94,293.86c-32.45,0-58.75-11.61-58.75-58.66" transform="translate(0 0)"/><polygon class="cls-1" points="162.52 363.54 145.78 346.83 402.07 90.92 418.8 107.63 162.52 363.54"/><path class="cls-2" d="M76.19,179.49h80a0,0,0,0,1,0,0V233a3,3,0,0,1-3,3h-74a3,3,0,0,1-3-3V179.49A0,0,0,0,1,76.19,179.49Z" transform="translate(232.38 415.46) rotate(180)"/></g></svg>